HIERARCHY
ROOT Hips
{
	OFFSET 0.000000 0.000000 0.000000
	CHANNELS 6 Xposition Yposition Zposition Xrotation Yrotation Zrotation
	JOINT LeftUpLeg_virtual
	{
		OFFSET 0.000000 0.000000 0.000000
		CHANNELS 3 Xrotation Yrotation Zrotation
		JOINT LeftUpLeg
		{
			OFFSET 10.205400 -3.823500 0.155100
			CHANNELS 3 Xrotation Yrotation Zrotation
			JOINT LeftLeg
			{
				OFFSET 0.708757 -12.982077 0.567790
				CHANNELS 3 Xrotation Yrotation Zrotation
				JOINT LeftFoot
				{
					OFFSET -0.708756 -10.717838 -2.184338
					CHANNELS 3 Xrotation Yrotation Zrotation
					JOINT LeftToeBase
					{
						OFFSET 0.108149 -7.191104 7.560241
						CHANNELS 3 Xrotation Yrotation Zrotation
						JOINT LeftToe_End
						{
							OFFSET 0.070230 0.081724 4.490308
							CHANNELS 3 Xrotation Yrotation Zrotation
							End Site
							{
								OFFSET 0 0 0
							}
						}
					}
				}
			}
		}
	}
	JOINT RightUpLeg_virtual
	{
		OFFSET 0.000000 0.000000 0.000000
		CHANNELS 3 Xrotation Yrotation Zrotation
		JOINT RightUpLeg
		{
			OFFSET -10.205400 -3.823500 0.005500
			CHANNELS 3 Xrotation Yrotation Zrotation
			JOINT RightLeg
			{
				OFFSET -0.708756 -12.982134 0.610632
				CHANNELS 3 Xrotation Yrotation Zrotation
				JOINT RightFoot
				{
					OFFSET 0.708754 -10.717769 -1.945823
					CHANNELS 3 Xrotation Yrotation Zrotation
					JOINT RightToeBase
					{
						OFFSET -0.108140 -7.191069 7.372968
						CHANNELS 3 Xrotation Yrotation Zrotation
						JOINT RightToe_End
						{
							OFFSET -0.070227 0.081735 4.479403
							CHANNELS 3 Xrotation Yrotation Zrotation
							End Site
							{
								OFFSET 0 0 0
							}
						}
					}
				}
			}
		}
	}
	JOINT Spine_virtual
	{
		OFFSET 0.000000 0.000000 0.000000
		CHANNELS 3 Xrotation Yrotation Zrotation
		JOINT Spine
		{
			OFFSET 0.000000 6.876099 0.125700
			CHANNELS 3 Xrotation Yrotation Zrotation
			JOINT Spine1
			{
				OFFSET 0.000000 5.730043 0.104720
				CHANNELS 3 Xrotation Yrotation Zrotation
				JOINT Spine1_split
				{
					OFFSET 0.000000 5.730043 0.104720
					CHANNELS 3 Xrotation Yrotation Zrotation
					JOINT Spine2
					{
						OFFSET 0.000000 5.730043 0.104720
						CHANNELS 3 Xrotation Yrotation Zrotation
						JOINT Neck_virtual
						{
							OFFSET 0.000000 0.000000 0.000000
							CHANNELS 3 Xrotation Yrotation Zrotation
							JOINT Neck
							{
								OFFSET 0.000000 10.314075 0.188496
								CHANNELS 3 Xrotation Yrotation Zrotation
								JOINT Head
								{
									OFFSET 0.000000 7.643700 -2.377400
									CHANNELS 3 Xrotation Yrotation Zrotation
									JOINT HeadTop_End
									{
										OFFSET 0.000000 43.788605 -13.619600
										CHANNELS 3 Xrotation Yrotation Zrotation
										End Site
										{
											OFFSET 0 0 0
										}
									}
								}
							}
						}
						JOINT LeftShoulder_virtual
						{
							OFFSET 0.000000 0.000000 0.000000
							CHANNELS 3 Xrotation Yrotation Zrotation
							JOINT LeftShoulder
							{
								OFFSET 2.196100 4.412489 0.087492
								CHANNELS 3 Xrotation Yrotation Zrotation
								JOINT LeftShoulder_split
								{
									OFFSET 2.196100 4.412489 0.087492
									CHANNELS 3 Xrotation Yrotation Zrotation
									JOINT LeftArm
									{
										OFFSET 8.771219 -2.981674 -0.026999
										CHANNELS 3 Xrotation Yrotation Zrotation
										JOINT LeftForeArm
										{
											OFFSET 8.512804 0.000000 -0.000000
											CHANNELS 3 Xrotation Yrotation Zrotation
											JOINT LeftHand
											{
												OFFSET 18.484802 0.000000 -0.000000
												CHANNELS 3 Xrotation Yrotation Zrotation
												End Site
												{
													OFFSET 0 0 0
												}
											}
										}
									}
								}
							}
						}
						JOINT RightShoulder_virtual
						{
							OFFSET 0.000000 0.000000 0.000000
							CHANNELS 3 Xrotation Yrotation Zrotation
							JOINT RightShoulder
							{
								OFFSET -2.196100 4.412496 0.070690
								CHANNELS 3 Xrotation Yrotation Zrotation
								JOINT RightShoulder_split
								{
									OFFSET -2.196100 4.412496 0.070690
									CHANNELS 3 Xrotation Yrotation Zrotation
									JOINT RightArm
									{
										OFFSET -8.771282 -2.981682 -0.094208
										CHANNELS 3 Xrotation Yrotation Zrotation
										JOINT RightForeArm
										{
											OFFSET -8.494598 0.000000 0.000000
											CHANNELS 3 Xrotation Yrotation Zrotation
											JOINT RightHand
											{
												OFFSET -18.483803 0.000000 0.000001
												CHANNELS 3 Xrotation Yrotation Zrotation
												End Site
												{
													OFFSET 0 0 0
												}
											}
										}
									}
								}
							}
						}
					}
				}
			}
		}
	}
}
MOTION
Frames: 6
Frame Time: 0.03333333
1.416519 27.363861 7.189358 0.000000 0.000000 0.000000 -0.151347 -35.976495 -2.743808 -42.265234 -1.241098 25.432264 68.301338 1.657241 -0.859538 -27.733906 -7.356347 -12.712451 -3.327311 -0.160170 2.554841 0.000000 0.000000 0.000000 -0.670789 -30.470492 -2.622420 -2.310327 -16.855032 -31.595868 54.738143 -1.942723 -14.338346 -22.812110 -14.390958 30.670469 -17.623222 1.015574 4.502365 0.000000 0.000000 0.000000 -0.926347 -30.147478 -3.054651 12.362052 9.502473 -4.440291 1.908839 2.087098 -2.011308 0.972010 -0.502827 0.914577 0.000000 0.000000 0.000000 3.812340 1.368972 -1.404794 -10.981963 9.967996 6.168370 0.674422 8.843912 -1.004604 0.000000 0.000000 0.000000 2.715955 1.885549 -1.604460 0.693895 0.165709 -5.503208 -1.989342 -2.942106 -0.210593 -59.364132 2.354829 -46.228725 -179.281537 -73.483034 -178.465644 0.000000 0.000000 0.000000 2.876001 1.394790 -1.780591 3.537750 22.315599 -4.684708 -8.075842 -3.607673 2.187579 -42.295810 17.882315 48.812654 -178.481736 62.281742 177.538418 0.000000 0.000000 0.000000 
1.421147 27.154224 6.318719 0.000000 0.000000 0.000000 -1.647907 -39.295823 -2.912921 -41.641092 -0.985131 27.310542 68.768066 1.783032 -1.297533 -25.972457 -5.945928 -13.574498 -3.711066 -0.173447 2.687444 0.000000 0.000000 0.000000 -2.280124 -33.608595 -2.735697 -3.932861 -16.638773 -33.340742 57.623417 -4.562608 -13.335044 -28.413121 -17.177921 30.245003 -11.766118 1.415400 2.084702 0.000000 0.000000 0.000000 -2.583152 -33.281780 -3.139111 12.707347 9.144305 -3.635949 2.053355 1.980679 -1.855747 0.923918 -0.369191 1.040022 0.000000 0.000000 0.000000 3.799702 1.313581 -1.261836 -10.506401 10.678641 5.708255 1.589295 11.393400 -2.042200 0.000000 0.000000 0.000000 2.903558 1.783379 -1.430874 0.803485 0.225354 -5.354689 -1.608404 -2.928230 -0.271575 -60.333820 3.237940 -46.380693 -179.531113 -73.512028 -178.951749 0.000000 0.000000 0.000000 2.952306 1.277849 -1.634960 3.647278 21.962424 -5.137213 -7.521657 -2.978119 2.316842 -44.732647 18.140385 52.587245 -177.653862 62.898816 176.701201 0.000000 0.000000 0.000000 
1.362753 26.978216 5.403600 0.000000 0.000000 0.000000 -2.979907 -41.835062 -2.993224 -41.190832 -1.082092 28.941298 68.495152 1.546246 -1.581953 -23.479651 -5.035595 -14.805818 -3.895189 -0.146377 2.775393 0.000000 0.000000 0.000000 -3.876620 -36.272560 -2.735948 -5.483529 -15.945251 -35.099120 59.706481 -6.177517 -12.343341 -32.149998 -18.727474 30.915745 -8.512974 1.502386 0.291067 0.000000 0.000000 0.000000 -3.943260 -35.798084 -3.051231 12.890251 8.796893 -2.852380 2.185987 1.847146 -1.660905 0.937294 -0.299101 1.076717 0.000000 0.000000 0.000000 3.737433 1.247783 -1.089196 -9.899134 11.219864 5.075450 2.475705 13.322603 -2.968112 0.000000 0.000000 0.000000 3.117741 1.653277 -1.241428 0.927976 0.329673 -5.534716 -1.363977 -2.788867 -0.398299 -60.712165 3.906010 -46.592791 -179.813992 -74.121971 -179.410286 0.000000 0.000000 0.000000 3.109088 1.165907 -1.444594 3.698316 21.287420 -5.504426 -6.882802 -2.437209 2.393900 -47.175833 18.142396 56.450608 -177.332707 62.960957 176.328177 0.000000 0.000000 0.000000 
1.240983 26.865368 4.450120 0.000000 0.000000 0.000000 -4.032063 -43.585278 -2.942809 -40.830123 -1.421744 30.254603 67.404296 1.221876 -1.701685 -20.453854 -4.659111 -15.933955 -3.765517 -0.081463 2.703828 0.000000 0.000000 0.000000 -5.298548 -38.300354 -2.644706 -6.689165 -14.942036 -36.523340 60.313316 -6.800270 -11.607083 -34.201889 -19.152320 32.553686 -7.180919 1.422284 -0.734528 0.000000 0.000000 0.000000 -4.928478 -37.635961 -2.799737 12.884940 8.437407 -2.118527 2.293703 1.681557 -1.434457 0.974683 -0.244413 1.067887 0.000000 0.000000 0.000000 3.649400 1.166874 -0.887529 -9.091603 11.624787 4.301487 3.314815 14.767123 -3.840444 0.000000 0.000000 0.000000 3.333460 1.496836 -1.041302 1.066998 0.453813 -6.009723 -1.287102 -2.577553 -0.528671 -60.493517 4.350349 -46.854753 179.905707 -75.041554 -179.775756 0.000000 0.000000 0.000000 3.325823 1.065854 -1.210384 3.712738 20.420567 -5.749597 -6.301112 -2.152369 2.323450 -49.470500 18.053775 60.085454 -177.473846 63.173758 176.384458 0.000000 0.000000 0.000000 
1.102645 26.848635 3.517391 0.000000 0.000000 0.000000 -4.767242 -44.647857 -2.736131 -40.494371 -1.791999 31.149040 65.761553 1.006713 -1.664929 -17.241682 -4.738034 -16.501592 -3.347037 0.018021 2.322072 0.000000 0.000000 0.000000 -6.445866 -39.713397 -2.473381 -7.205000 -14.129279 -37.278114 59.413732 -7.080899 -11.106647 -35.712409 -18.841184 33.344738 -5.830390 1.267883 -0.990560 0.000000 0.000000 0.000000 -5.492446 -38.976242 -2.367415 12.747918 8.084594 -1.464020 2.377428 1.509618 -1.203050 0.952661 -0.183879 0.976808 0.000000 0.000000 0.000000 3.554229 1.065127 -0.675756 -8.112249 11.941872 3.445172 4.093196 15.837144 -4.701783 0.000000 0.000000 0.000000 3.519881 1.331300 -0.845181 1.207937 0.595166 -6.653358 -1.332761 -2.482318 -0.595273 -59.675848 4.582369 -47.155247 179.627241 -75.859762 179.943724 0.000000 0.000000 0.000000 3.558528 0.978444 -0.966912 3.703092 19.494825 -5.896700 -5.726617 -2.035706 2.211222 -51.482746 18.176595 63.266724 -177.935444 63.890286 176.727825 0.000000 0.000000 0.000000 
0.948606 26.927124 2.600794 0.000000 0.000000 0.000000 -5.198779 -45.090467 -2.359026 -40.270853 -2.087331 31.448780 63.970773 0.937170 -1.410123 -14.333126 -5.181301 -16.461656 -2.867536 0.120228 1.674758 0.000000 0.000000 0.000000 -7.312311 -40.538112 -2.194752 -7.280099 -13.704142 -37.400562 57.633218 -7.493037 -10.617698 -37.214159 -18.134859 32.518336 -3.456155 1.128750 -0.638345 0.000000 0.000000 0.000000 -5.756632 -39.932708 -1.800955 12.552523 7.776657 -0.933614 2.426323 1.347717 -1.002479 0.811676 -0.098375 0.830876 0.000000 0.000000 0.000000 3.467708 0.965470 -0.491556 -6.986033 12.197114 2.608276 4.819557 16.626328 -5.552022 0.000000 0.000000 0.000000 3.653846 1.181113 -0.681417 1.341232 0.736518 -7.311962 -1.305077 -2.436514 -0.609141 -58.458244 4.613574 -47.503020 179.437798 -76.306122 179.809975 0.000000 0.000000 0.000000 3.770264 0.913029 -0.755448 3.705534 18.642387 -5.998095 -5.318521 -2.108454 2.106132 -53.150278 18.650597 65.969956 -178.530708 65.044206 177.203671 0.000000 0.000000 0.000000 
